<?xml version="1.0" encoding="UTF-8"?>
<!DOCTYPE svg PUBLIC "-//W3C//DTD SVG 1.1//EN" "http://www.w3.org/Graphics/SVG/1.1/DTD/svg11.dtd">
<svg xmlns="http://www.w3.org/2000/svg" version="1.1" width="500px" height="500px" style="shape-rendering:geometricPrecision; text-rendering:geometricPrecision; image-rendering:optimizeQuality; fill-rule:evenodd; clip-rule:evenodd" xmlns:xlink="http://www.w3.org/1999/xlink">
<g><path style="opacity:0.004" fill="#fefffe" d="M 136.5,3.5 C 153.152,4.22452 169.819,4.72452 186.5,5C 185.377,6.04373 184.044,6.71039 182.5,7C 168.148,7.21704 153.815,7.71704 139.5,8.5C 137.488,8.16044 135.488,7.8271 133.5,7.5C 133.5,6.5 133.5,5.5 133.5,4.5C 134.791,4.73731 135.791,4.40397 136.5,3.5 Z"/></g>
<g><path style="opacity:0.004" fill="#fefffe" d="M 231.5,3.5 C 237.683,3.04742 243.683,3.54742 249.5,5C 248.833,5.66667 248.167,6.33333 247.5,7C 241.509,7.49949 235.509,7.66615 229.5,7.5C 229.527,5.80072 230.194,4.46739 231.5,3.5 Z"/></g>
<g><path style="opacity:0.005" fill="#fefefe" d="M 499.5,6.5 C 499.5,10.8333 499.5,15.1667 499.5,19.5C 498.208,17.7451 497.208,15.7451 496.5,13.5C 494.257,14.4118 493.257,16.0785 493.5,18.5C 493.967,21.1476 495.134,23.4809 497,25.5C 497.934,24.1416 498.768,22.8083 499.5,21.5C 499.5,27.1667 499.5,32.8333 499.5,38.5C 498.442,37.3998 497.608,36.0664 497,34.5C 496.887,36.9739 495.887,38.9739 494,40.5C 493.333,49.1667 493.333,57.8333 494,66.5C 494.333,66.1667 494.667,65.8333 495,65.5C 495.309,66.7659 495.809,67.9326 496.5,69C 495.679,74.147 496.012,79.3137 497.5,84.5C 498.183,84.1373 498.85,83.8039 499.5,83.5C 499.5,222.167 499.5,360.833 499.5,499.5C 387.167,499.5 274.833,499.5 162.5,499.5C 163.936,496.727 162.936,495.227 159.5,495C 153.448,494.21 147.448,494.376 141.5,495.5C 130.012,490.856 118.346,490.356 106.5,494C 103.785,494.875 102.452,496.708 102.5,499.5C 68.1667,499.5 33.8333,499.5 -0.5,499.5C -0.5,461.5 -0.5,423.5 -0.5,385.5C 0.572478,402.064 1.90581,418.73 3.5,435.5C 3.83333,435.833 4.16667,436.167 4.5,436.5C 5.3323,426.183 5.8323,415.849 6,405.5C 7.39377,403.598 9.22711,403.265 11.5,404.5C 12.0717,398.444 13.0717,392.444 14.5,386.5C 13.3686,359.847 13.202,333.18 14,306.5C 16.3246,303.258 16.6579,299.924 15,296.5C 14.8333,292.667 14.6667,288.833 14.5,285C 15.8937,273.564 16.5604,262.064 16.5,250.5C 14.1982,233.36 13.0316,216.027 13,198.5C 12.7601,195.638 11.5934,193.305 9.5,191.5C 11.5052,188.97 12.8386,186.137 13.5,183C 12.2566,180.966 10.7566,180.133 9,180.5C 8.83333,178.833 8.66667,177.167 8.5,175.5C 10.1059,167.684 10.9392,159.684 11,151.5C 11.413,154.232 12.0797,156.899 13,159.5C 13.4999,148.172 13.6665,136.838 13.5,125.5C 11.6203,125.771 10.287,125.104 9.5,123.5C 11.1556,115.36 12.489,107.027 13.5,98.5C 13.2395,96.8129 12.5728,95.3129 11.5,94C 12.2489,92.2663 12.7489,90.433 13,88.5C 13.7776,73.8384 14.4442,59.1717 15,44.5C 15.8078,42.5767 16.3078,40.5767 16.5,38.5C 15.1667,35.1667 13.8333,31.8333 12.5,28.5C 12.7858,24.8806 14.7858,22.8806 18.5,22.5C 22.4336,18.6258 22.4336,14.7925 18.5,11C 21.1808,8.1515 24.5142,6.48483 28.5,6C 42.1788,5.16726 55.8455,5.33393 69.5,6.5C 64.4925,8.52865 59.4925,9.69532 54.5,10C 57.8692,10.6626 61.2025,10.4959 64.5,9.5C 68.8672,12.1869 73.5339,14.0202 78.5,15C 83.889,15.9548 89.0557,15.4548 94,13.5C 98.28,15.0475 102.78,15.7142 107.5,15.5C 117.124,14.789 126.624,13.4557 136,11.5C 138.266,12.9563 140.766,13.7896 143.5,14C 171.833,14.6667 200.167,14.6667 228.5,14C 236.76,11.9327 244.927,12.0994 253,14.5C 255.279,14.5613 257.279,13.8946 259,12.5C 260.144,12.9111 261.311,13.2444 262.5,13.5C 269.833,12.8333 277.167,12.1667 284.5,11.5C 286.459,11.8748 288.293,12.5415 290,13.5C 292.776,12.315 295.61,12.315 298.5,13.5C 307.701,12.8518 316.867,11.8518 326,10.5C 335.151,11.2888 344.318,11.9555 353.5,12.5C 365.828,10.5423 378.161,9.70902 390.5,10C 391.308,9.69238 391.975,9.19238 392.5,8.5C 390.955,7.54811 389.288,7.21478 387.5,7.5C 387.147,5.3652 387.98,4.03187 390,3.5C 392.118,4.19589 394.284,4.36255 396.5,4C 397.075,8.37667 399.575,10.21 404,9.5C 409.831,7.84421 415.665,6.01087 421.5,4C 427.253,3.14924 432.92,3.48257 438.5,5C 440.155,7.65302 442.155,9.98636 444.5,12C 450.815,12.5582 456.982,13.7248 463,15.5C 465.321,14.5128 466.987,12.8461 468,10.5C 466.848,7.27298 468.015,5.10631 471.5,4C 480.983,3.58796 490.316,4.4213 499.5,6.5 Z M 480.5,7.5 C 485.419,8.28564 487.752,11.2856 487.5,16.5C 487.308,18.5767 486.808,20.5767 486,22.5C 484.273,19.107 481.606,16.7736 478,15.5C 477.723,12.4985 478.556,9.83182 480.5,7.5 Z M 471.5,26.5 C 474.044,26.1043 476.211,26.771 478,28.5C 478.315,31.3715 478.815,34.2048 479.5,37C 479.246,47.7957 479.079,58.6291 479,69.5C 477.534,71.3249 475.701,71.8249 473.5,71C 472.441,66.5391 470.275,65.7057 467,68.5C 464.22,78.378 467.387,81.378 476.5,77.5C 477.478,77.9767 478.311,78.6433 479,79.5C 479.667,89.5 479.667,99.5 479,109.5C 478.037,115.508 474.537,117.675 468.5,116C 467.107,114.829 466.273,113.329 466,111.5C 465.401,103.142 464.568,94.8084 463.5,86.5C 464.086,81.3225 464.753,76.1559 465.5,71C 464.258,65.1091 464.592,59.2758 466.5,53.5C 465.57,49.8127 464.236,46.3127 462.5,43C 463.384,39.4055 465.384,36.5721 468.5,34.5C 469.007,31.5779 470.007,28.9113 471.5,26.5 Z M 476.5,136.5 C 479.238,135.965 481.072,136.965 482,139.5C 482.234,154.181 482.734,168.848 483.5,183.5C 481.18,206.471 480.847,229.638 482.5,253C 482.697,258.956 482.03,264.79 480.5,270.5C 480.889,319.511 480.889,368.511 480.5,417.5C 479.197,427.493 478.03,437.493 477,447.5C 476.085,446.672 475.419,445.672 475,444.5C 473.824,433.788 472.324,423.121 470.5,412.5C 470.486,410.389 471.152,408.555 472.5,407C 470.951,404.362 469.785,401.529 469,398.5C 468.568,343.492 468.734,288.659 469.5,234C 468.616,218.094 467.282,202.26 465.5,186.5C 465.411,182.715 465.911,179.048 467,175.5C 469.454,174.802 471.787,173.802 474,172.5C 475.051,160.465 475.885,148.465 476.5,136.5 Z M 251.5,243.5 C 252.968,244.869 254.635,246.036 256.5,247C 254.479,247.513 252.979,248.68 252,250.5C 251.503,248.19 251.337,245.857 251.5,243.5 Z M 230.5,247.5 C 231.239,247.369 231.906,247.536 232.5,248C 231,249.5 229.5,251 228,252.5C 227.308,251.975 226.808,251.308 226.5,250.5C 228.184,249.85 229.517,248.85 230.5,247.5 Z M 270.5,250.5 C 269.314,256.081 268.814,256.414 269,251.5C 269.383,250.944 269.883,250.611 270.5,250.5 Z M 215.5,254.5 C 217.591,254.318 219.591,254.652 221.5,255.5C 222.614,256.723 222.781,258.056 222,259.5C 219.054,258.707 216.887,257.04 215.5,254.5 Z M 274.5,258.5 C 278.068,258.759 279.401,260.759 278.5,264.5C 276.833,264.5 275.167,264.5 273.5,264.5C 273.325,262.379 273.659,260.379 274.5,258.5 Z M 286.5,258.5 C 293.284,261.063 292.951,261.896 285.5,261C 286.252,260.329 286.586,259.496 286.5,258.5 Z M 193.5,274.5 C 194.639,270.866 197.139,268.866 201,268.5C 202.866,263.459 206.366,260.459 211.5,259.5C 211.5,260.5 211.5,261.5 211.5,262.5C 204.994,263.135 201.994,266.802 202.5,273.5C 199.391,273.264 196.391,273.597 193.5,274.5 Z M 257.5,253.5 C 261.409,252.737 262.742,254.07 261.5,257.5C 259.955,258.452 258.288,258.785 256.5,258.5C 256.366,256.708 256.699,255.042 257.5,253.5 Z M 242.5,265.5 C 239.772,266.205 236.939,266.872 234,267.5C 231.877,267.034 230.377,265.867 229.5,264C 229.667,263.5 229.833,263 230,262.5C 230.374,263.416 230.874,264.25 231.5,265C 235.152,265.499 238.818,265.665 242.5,265.5 Z M 243.5,264.5 C 243.783,263.711 244.283,263.044 245,262.5C 245.528,263.816 245.028,264.483 243.5,264.5 Z M 253.5,264.5 C 256.43,265.299 259.43,265.632 262.5,265.5C 262.631,266.239 262.464,266.906 262,267.5C 259.595,266.726 257.095,266.226 254.5,266C 253.944,265.617 253.611,265.117 253.5,264.5 Z M 260.5,268.5 C 263.001,268.511 263.168,269.178 261,270.5C 260.536,269.906 260.369,269.239 260.5,268.5 Z M 270.5,270.5 C 269.833,270.5 269.167,270.5 268.5,270.5C 269.167,267.833 269.833,267.833 270.5,270.5 Z M 222.5,270.5 C 224.337,270.639 224.67,271.306 223.5,272.5C 222.702,272.043 222.369,271.376 222.5,270.5 Z M 280.5,277.5 C 278.518,277.005 276.518,276.505 274.5,276C 275.38,274.644 275.714,273.144 275.5,271.5C 274.448,271.649 273.448,271.483 272.5,271C 274.81,270.503 277.143,270.337 279.5,270.5C 279.993,272.806 280.326,275.139 280.5,277.5 Z M 261.5,272.5 C 262.077,271.227 262.743,271.227 263.5,272.5C 263.03,273.463 262.363,273.463 261.5,272.5 Z M 298.5,271.5 C 301.001,271.511 301.168,272.178 299,273.5C 298.536,272.906 298.369,272.239 298.5,271.5 Z M 220.5,276.5 C 220.517,274.972 221.184,274.472 222.5,275C 221.956,275.717 221.289,276.217 220.5,276.5 Z M 190.5,276.5 C 188.882,279.805 187.216,283.139 185.5,286.5C 185.131,283.402 185.964,280.402 188,277.5C 188.671,276.748 189.504,276.414 190.5,276.5 Z M 220.5,276.5 C 220.167,277.5 219.5,278.167 218.5,278.5C 218.5,277.167 219.167,276.5 220.5,276.5 Z M 196.5,279.5 C 204.047,280.51 205.88,284.176 202,290.5C 199.006,288.627 195.839,287.127 192.5,286C 194.058,283.948 195.392,281.781 196.5,279.5 Z M 217.5,279.5 C 216.082,281.708 214.082,282.542 211.5,282C 213.217,280.441 215.217,279.608 217.5,279.5 Z M 282.5,280.5 C 283.946,279.387 285.613,279.22 287.5,280C 287,280.5 286.5,281 286,281.5C 284.989,280.663 283.822,280.33 282.5,280.5 Z M 297.5,281.5 C 298.675,281.281 299.675,281.614 300.5,282.5C 298.926,283.631 297.259,283.798 295.5,283C 296.416,282.722 297.082,282.222 297.5,281.5 Z M 292.5,284.5 C 296.276,284.469 296.443,285.136 293,286.5C 291.316,286.317 291.15,285.65 292.5,284.5 Z M 186.5,292.5 C 188.898,292.259 190.898,292.926 192.5,294.5C 190.102,294.741 188.102,294.074 186.5,292.5 Z M 294.5,298.5 C 297.5,298.5 300.5,298.5 303.5,298.5C 303.5,300.833 303.5,303.167 303.5,305.5C 301.5,305.5 299.5,305.5 297.5,305.5C 297.472,303.418 298.139,301.584 299.5,300C 297.618,299.802 295.952,299.302 294.5,298.5 Z M 191.5,300.5 C 192.552,300.351 193.552,300.517 194.5,301C 191.111,302.276 188.445,304.442 186.5,307.5C 185.592,306.21 185.759,304.877 187,303.5C 188.409,302.219 189.909,301.219 191.5,300.5 Z M 185.5,308.5 C 185.954,311.945 187.288,315.112 189.5,318C 190.5,318.333 191.5,318.667 192.5,319C 189.857,320.436 187.19,320.602 184.5,319.5C 185.426,315.906 185.759,312.24 185.5,308.5 Z M 311.5,311.5 C 312.895,309.7 314.561,309.366 316.5,310.5C 314.955,311.452 313.288,311.785 311.5,311.5 Z M 291.5,327.5 C 292.502,323.609 293.335,319.609 294,315.5C 294.615,313.884 295.615,312.551 297,311.5C 296.187,314.205 295.354,317.038 294.5,320C 294.943,321.825 295.277,323.658 295.5,325.5C 293.801,325.527 292.467,326.194 291.5,327.5 Z M 204.5,314.5 C 205.776,315.386 205.776,316.386 204.5,317.5C 203.438,316.575 203.438,315.575 204.5,314.5 Z M 301.5,317.5 C 305.5,316.833 307.167,318.5 306.5,322.5C 304.833,322.5 303.167,322.5 301.5,322.5C 301.5,320.833 301.5,319.167 301.5,317.5 Z M 188.5,326.5 C 192.588,326.218 193.088,326.885 190,328.5C 188.97,328.164 188.47,327.497 188.5,326.5 Z M 291.5,327.5 C 292.955,329.31 292.788,330.977 291,332.5C 289.686,330.853 289.853,329.186 291.5,327.5 Z M 307.5,328.5 C 308.5,328.5 309.5,328.5 310.5,328.5C 310.668,331.684 309.334,332.184 306.5,330C 307.056,329.617 307.389,329.117 307.5,328.5 Z M 194.5,333.5 C 195.097,333.735 195.43,334.235 195.5,335C 194.839,337.464 194.339,339.964 194,342.5C 193.727,340.671 192.893,339.171 191.5,338C 192.167,337.333 192.833,336.667 193.5,336C 192.262,336.077 191.262,335.911 190.5,335.5C 191.949,334.828 193.282,334.161 194.5,333.5 Z M 289.5,333.5 C 291.564,336.046 293.897,338.379 296.5,340.5C 297.833,341.833 297.833,343.167 296.5,344.5C 293.591,341.423 290.258,338.923 286.5,337C 288.063,336.241 289.063,335.074 289.5,333.5 Z M 201.5,336.5 C 203.167,336.5 204.833,336.5 206.5,336.5C 207.263,340.409 205.93,341.742 202.5,340.5C 201.571,339.311 201.238,337.978 201.5,336.5 Z M 304.5,336.5 C 305.901,336.971 307.234,337.638 308.5,338.5C 306.495,339.499 305.162,338.832 304.5,336.5 Z M 215.5,340.5 C 216.766,341.09 218.099,341.59 219.5,342C 217.537,342.844 216.204,342.344 215.5,340.5 Z M 282.5,342.5 C 285.506,344.839 288.173,347.506 290.5,350.5C 289.635,351.583 288.635,351.749 287.5,351C 285.421,348.722 283.087,346.889 280.5,345.5C 281.193,344.482 281.859,343.482 282.5,342.5 Z M 195.5,345.5 C 198.001,345.511 198.168,346.178 196,347.5C 195.536,346.906 195.369,346.239 195.5,345.5 Z M 276.5,347.5 C 272.667,349.335 268.834,351.335 265,353.5C 264.167,353.333 263.333,353.167 262.5,353C 266.751,350.083 271.418,348.25 276.5,347.5 Z M 208.5,359.5 C 206.454,358.641 205.121,357.141 204.5,355C 205.303,352.592 205.636,350.425 205.5,348.5C 206.096,352.363 207.096,356.03 208.5,359.5 Z M 214.5,348.5 C 218.882,349.587 219.382,351.587 216,354.5C 211.948,353.348 211.448,351.348 214.5,348.5 Z M 203.5,351.5 C 202.828,352.267 201.995,352.934 201,353.5C 200.812,351.939 201.645,351.272 203.5,351.5 Z M 232.5,353.5 C 233.289,353.783 233.956,354.283 234.5,355C 232.14,355.794 230.14,356.794 228.5,358C 229.357,355.981 230.691,354.481 232.5,353.5 Z M 256.5,354.5 C 256.217,355.289 255.717,355.956 255,356.5C 254.472,355.184 254.972,354.517 256.5,354.5 Z M 295.5,356.5 C 295.517,354.972 296.184,354.472 297.5,355C 296.956,355.717 296.289,356.217 295.5,356.5 Z M 295.5,356.5 C 295.489,358.686 294.489,359.519 292.5,359C 293.373,357.955 294.373,357.122 295.5,356.5 Z M 284.5,358.5 C 286.337,358.639 286.67,359.306 285.5,360.5C 284.702,360.043 284.369,359.376 284.5,358.5 Z M 208.5,359.5 C 209.756,359.461 210.756,359.961 211.5,361C 210.002,361.585 209.002,361.085 208.5,359.5 Z M 219.5,360.5 C 220.124,360.917 220.457,361.584 220.5,362.5C 219.837,365.806 219.337,369.139 219,372.5C 218.691,371.234 218.191,370.067 217.5,369C 218.482,366.262 219.148,363.428 219.5,360.5 Z M 245.5,363.5 C 247.008,366.122 246.508,368.455 244,370.5C 243.865,368.078 244.365,365.745 245.5,363.5 Z M 254.5,366.5 C 256.628,365.371 258.961,365.204 261.5,366C 259.157,367.415 256.823,367.582 254.5,366.5 Z M 228.5,368.5 C 228.217,369.289 227.717,369.956 227,370.5C 226.472,369.184 226.972,368.517 228.5,368.5 Z M 231.5,365.5 C 231.167,366.5 230.5,367.167 229.5,367.5C 229.5,366.167 230.167,365.5 231.5,365.5 Z M 496.5,428.5 C 497.811,432.683 497.811,437.016 496.5,441.5C 495.914,441.291 495.414,440.957 495,440.5C 493.994,436.198 494.494,432.198 496.5,428.5 Z M 35.5,495.5 C 39.8839,495.174 44.2172,495.508 48.5,496.5C 47.4406,497.696 46.1073,498.363 44.5,498.5C 41.8072,497.29 39.1405,497.29 36.5,498.5C 34.4807,497.867 34.1474,496.867 35.5,495.5 Z M 357.5,497.5 C 363.319,496.347 369.319,496.181 375.5,497C 373.03,498.114 370.364,498.614 367.5,498.5C 364.133,498.355 360.799,498.022 357.5,497.5 Z"/></g>
<g><path style="opacity:0.004" fill="#fefffe" d="M 219.5,5.5 C 220.946,4.38705 222.613,4.22039 224.5,5C 223.667,5.83333 222.833,6.66667 222,7.5C 221.292,6.61947 220.458,5.9528 219.5,5.5 Z"/></g>
<g><path style="opacity:0.004" fill="#fefffe" d="M -0.5,5.5 C 0.649106,5.79106 1.31577,6.62439 1.5,8C 1.13314,10.7082 0.466468,13.2082 -0.5,15.5C -0.5,12.1667 -0.5,8.83333 -0.5,5.5 Z"/></g>
<g><path style="opacity:0.004" fill="#fefffe" d="M 6.5,5.5 C 7.52502,5.89657 7.69169,6.56323 7,7.5C 6.53566,6.90558 6.36899,6.23891 6.5,5.5 Z"/></g>
<g><path style="opacity:0.004" fill="#fefffe" d="M 9.5,123.5 C 7.1104,123.315 6.1104,121.982 6.5,119.5C 7.74805,113.139 7.74805,106.806 6.5,100.5C 7,99.5 7.5,98.5 8,97.5C 8.19538,106.244 8.69538,114.911 9.5,123.5 Z"/></g>
<g><path style="opacity:0.809" fill="#1e1e1e" d="M 248.5,248.5 C 248.818,253.032 248.485,257.366 247.5,261.5C 246.473,255.155 246.473,248.822 247.5,242.5C 248.466,244.396 248.799,246.396 248.5,248.5 Z"/></g>
<g><path style="opacity:0.682" fill="#272727" d="M 234.5,249.5 C 238.758,249.295 241.758,251.128 243.5,255C 240.569,256.695 237.402,257.862 234,258.5C 232.743,258.85 232.409,259.517 233,260.5C 236.413,263.256 239.58,262.923 242.5,259.5C 243.711,260.274 243.711,261.107 242.5,262C 233.249,265.416 229.415,262.25 231,252.5C 232.145,251.364 233.312,250.364 234.5,249.5 Z"/></g>
<g><path style="opacity:0.124" fill="#ececec" d="M 234.5,251.5 C 237.969,250.887 239.969,252.221 240.5,255.5C 237.687,255.548 235.021,256.215 232.5,257.5C 232.167,257 231.833,256.5 231.5,256C 232.315,254.357 233.315,252.857 234.5,251.5 Z"/></g>
<g><path style="opacity:0.733" fill="#818181" d="M 248.5,248.5 C 249.812,253.015 249.812,257.682 248.5,262.5C 247.893,262.376 247.56,262.043 247.5,261.5C 248.485,257.366 248.818,253.032 248.5,248.5 Z"/></g>
<g><path style="opacity:0.784" fill="#212121" d="M 272.5,252.5 C 275.753,253.869 278.919,255.535 282,257.5C 283.955,265.791 280.788,269.291 272.5,268C 270.951,266.786 269.785,265.286 269,263.5C 268.086,265.664 266.919,267.664 265.5,269.5C 265.167,269.167 264.833,268.833 264.5,268.5C 267.18,263.14 269.847,257.807 272.5,252.5 Z M 274.5,258.5 C 273.659,260.379 273.325,262.379 273.5,264.5C 275.167,264.5 276.833,264.5 278.5,264.5C 279.401,260.759 278.068,258.759 274.5,258.5 Z"/></g>
<g><path style="opacity:0.088" fill="#f2f2f2" d="M 272.5,256.5 C 274.92,256.292 277.253,256.626 279.5,257.5C 281.885,264.946 279.385,267.613 272,265.5C 270.029,262.384 270.195,259.384 272.5,256.5 Z M 274.5,258.5 C 273.659,260.379 273.325,262.379 273.5,264.5C 275.167,264.5 276.833,264.5 278.5,264.5C 279.401,260.759 278.068,258.759 274.5,258.5 Z"/></g>
<g><path style="opacity:0.765" fill="#202020" d="M 256.5,248.5 C 265.091,248.576 267.924,252.576 265,260.5C 260.706,264.601 256.706,264.268 253,259.5C 251.662,254.96 252.829,251.293 256.5,248.5 Z M 257.5,253.5 C 256.699,255.042 256.366,256.708 256.5,258.5C 258.288,258.785 259.955,258.452 261.5,257.5C 262.742,254.07 261.409,252.737 257.5,253.5 Z"/></g>
<g><path style="opacity:0.094" fill="#efefef" d="M 256.5,250.5 C 262.665,249.829 265.165,252.496 264,258.5C 261.374,262.072 258.374,262.405 255,259.5C 254.068,256.177 254.568,253.177 256.5,250.5 Z M 257.5,253.5 C 256.699,255.042 256.366,256.708 256.5,258.5C 258.288,258.785 259.955,258.452 261.5,257.5C 262.742,254.07 261.409,252.737 257.5,253.5 Z"/></g>
<g><path style="opacity:0.935" fill="#232323" d="M 286.5,263.5 C 291.548,263.216 294.548,265.549 295.5,270.5C 295.693,272.688 294.859,274.355 293,275.5C 290.333,272.833 287.667,270.167 285,267.5C 282.404,272.462 283.904,275.795 289.5,277.5C 285.201,277.565 282.535,275.232 281.5,270.5C 282.06,267.288 283.727,264.955 286.5,263.5 Z"/></g>
<g><path style="opacity:0.159" fill="#f7f7f7" d="M 286.5,265.5 C 292.499,265.002 294.666,267.669 293,273.5C 290.218,271.229 288.051,268.563 286.5,265.5 Z"/></g>
<g><path style="opacity:0.859" fill="#222222" d="M 224.5,253.5 C 225.725,254.152 226.392,255.319 226.5,257C 227.205,260.804 227.538,264.637 227.5,268.5C 226.448,268.649 225.448,268.483 224.5,268C 221.01,265.089 217.344,262.422 213.5,260C 214.5,259.333 215.5,259.333 216.5,260C 219.029,262.029 221.696,263.862 224.5,265.5C 225.367,261.535 225.367,257.535 224.5,253.5 Z"/></g>
<g><path style="opacity:0.919" fill="#1c1c1c" d="M 196.5,275.5 C 205.037,275.201 208.871,279.201 208,287.5C 207.027,290.779 205.527,293.779 203.5,296.5C 197.808,293.991 192.474,290.991 187.5,287.5C 189.074,282.318 192.074,278.318 196.5,275.5 Z M 196.5,279.5 C 195.392,281.781 194.058,283.948 192.5,286C 195.839,287.127 199.006,288.627 202,290.5C 205.88,284.176 204.047,280.51 196.5,279.5 Z"/></g>
<g><path style="opacity:0.867" fill="#222222" d="M 208.5,264.5 C 211.665,263.964 214.331,264.797 216.5,267C 213.833,269.667 211.167,272.333 208.5,275C 213.462,277.596 216.795,276.096 218.5,270.5C 218.991,273.679 217.657,276.179 214.5,278C 207.333,278.833 204.167,275.667 205,268.5C 206.376,267.295 207.542,265.962 208.5,264.5 Z"/></g>
<g><path style="opacity:0.166" fill="#f6f6f6" d="M 208.5,266.5 C 210.527,266.338 212.527,266.505 214.5,267C 212.317,269.35 209.984,271.517 207.5,273.5C 206.154,270.9 206.488,268.567 208.5,266.5 Z"/></g>
<g><path style="opacity:0.955" fill="#242424" d="M 299.5,275.5 C 301.193,276.475 302.693,277.808 304,279.5C 304.667,280.167 304.667,280.833 304,281.5C 302.874,280.056 301.374,279.39 299.5,279.5C 296.433,280.53 293.433,281.863 290.5,283.5C 290.167,283.167 289.833,282.833 289.5,282.5C 292.9,280.144 296.233,277.811 299.5,275.5 Z"/></g>
<g><path style="opacity:0.092" fill="#efefef" d="M 196.5,277.5 C 204.201,277.362 207.367,281.029 206,288.5C 205.313,290.555 204.146,292.221 202.5,293.5C 197.888,291.861 193.554,289.694 189.5,287C 191.013,283.103 193.346,279.937 196.5,277.5 Z M 196.5,279.5 C 195.392,281.781 194.058,283.948 192.5,286C 195.839,287.127 199.006,288.627 202,290.5C 205.88,284.176 204.047,280.51 196.5,279.5 Z"/></g>
<g><path style="opacity:0.004" fill="#fefffe" d="M 197.5,283.5 C 200.676,281.727 202.343,282.727 202.5,286.5C 200.336,286.279 198.67,285.279 197.5,283.5 Z"/></g>
<g><path style="opacity:0.849" fill="#161616" d="M 307.5,292.5 C 309.857,292.337 312.19,292.503 314.5,293C 311.986,294.252 309.32,294.752 306.5,294.5C 307.486,298.443 308.152,302.443 308.5,306.5C 311.244,305.795 313.911,305.795 316.5,306.5C 310.63,308.41 304.63,309.243 298.5,309C 301.063,307.921 303.729,307.421 306.5,307.5C 306.167,303.5 305.833,299.5 305.5,295.5C 302.373,295.876 299.373,295.876 296.5,295.5C 300.263,294.385 303.93,293.385 307.5,292.5 Z"/></g>
<g><path style="opacity:0.857" fill="#1a1a1a" d="M 193.5,303.5 C 194.5,303.5 195.5,303.5 196.5,303.5C 196.176,307.555 196.509,311.555 197.5,315.5C 201.888,312.896 202.554,309.562 199.5,305.5C 200.167,304.167 200.833,304.167 201.5,305.5C 204.287,315.152 200.954,318.652 191.5,316C 187.276,311.059 187.943,306.892 193.5,303.5 Z"/></g>
<g><path style="opacity:0.07" fill="#efefef" d="M 194.5,305.5 C 195.055,309.012 194.388,312.012 192.5,314.5C 191.883,314.389 191.383,314.056 191,313.5C 189.579,309.532 190.746,306.865 194.5,305.5 Z"/></g>
<g><path style="opacity:0.678" fill="#8d8d8d" d="M 194.5,305.5 C 195.479,308.625 195.813,311.958 195.5,315.5C 194.209,315.737 193.209,315.404 192.5,314.5C 194.388,312.012 195.055,309.012 194.5,305.5 Z"/></g>
<g><path style="opacity:0.771" fill="#232323" d="M 201.5,319.5 C 202.376,319.369 203.043,319.702 203.5,320.5C 197.276,323.314 190.942,324.647 184.5,324.5C 190.093,322.354 195.76,320.688 201.5,319.5 Z"/></g>
<g><path style="opacity:0.803" fill="#262626" d="M 301.5,312.5 C 308.64,312.283 311.807,315.616 311,322.5C 307.038,328.631 302.705,328.964 298,323.5C 296.663,318.916 297.829,315.249 301.5,312.5 Z M 301.5,317.5 C 301.5,319.167 301.5,320.833 301.5,322.5C 303.167,322.5 304.833,322.5 306.5,322.5C 307.167,318.5 305.5,316.833 301.5,317.5 Z"/></g>
<g><path style="opacity:0.08" fill="#e7e7e7" d="M 301.5,314.5 C 309.818,314.987 311.485,318.487 306.5,325C 298.079,324.734 296.412,321.234 301.5,314.5 Z M 301.5,317.5 C 301.5,319.167 301.5,320.833 301.5,322.5C 303.167,322.5 304.833,322.5 306.5,322.5C 307.167,318.5 305.5,316.833 301.5,317.5 Z"/></g>
<g><path style="opacity:0.746" fill="#181818" d="M 203.5,325.5 C 205.705,325.846 205.872,326.513 204,327.5C 200.539,328.932 197.039,330.265 193.5,331.5C 193.167,331.167 192.833,330.833 192.5,330.5C 196.175,328.619 199.841,326.952 203.5,325.5 Z"/></g>
<g><path style="opacity:0.764" fill="#000000" d="M 187.5,331.5 C 189.337,331.639 189.67,332.306 188.5,333.5C 187.702,333.043 187.369,332.376 187.5,331.5 Z"/></g>
<g><path style="opacity:0.951" fill="#191919" d="M 294.5,327.5 C 300.718,329.608 306.718,332.274 312.5,335.5C 312.167,335.833 311.833,336.167 311.5,336.5C 306.28,334.057 300.947,331.89 295.5,330C 294.748,329.329 294.414,328.496 294.5,327.5 Z"/></g>
<g><path style="opacity:0.873" fill="#242424" d="M 201.5,331.5 C 203.989,331.298 206.323,331.798 208.5,333C 210.258,335.443 211.925,337.943 213.5,340.5C 208.167,344.167 202.833,347.833 197.5,351.5C 196.479,350.998 196.312,350.332 197,349.5C 198.833,348.333 200.667,347.167 202.5,346C 194.986,341.501 194.653,336.668 201.5,331.5 Z M 201.5,336.5 C 201.238,337.978 201.571,339.311 202.5,340.5C 205.93,341.742 207.263,340.409 206.5,336.5C 204.833,336.5 203.167,336.5 201.5,336.5 Z"/></g>
<g><path style="opacity:0.1" fill="#f1f1f1" d="M 201.5,333.5 C 208.842,333.207 210.842,336.207 207.5,342.5C 202.702,344.782 199.702,343.449 198.5,338.5C 199.092,336.577 200.092,334.911 201.5,333.5 Z M 201.5,336.5 C 201.238,337.978 201.571,339.311 202.5,340.5C 205.93,341.742 207.263,340.409 206.5,336.5C 204.833,336.5 203.167,336.5 201.5,336.5 Z"/></g>
<g><path style="opacity:0.894" fill="#212121" d="M 212.5,344.5 C 222.629,345.106 224.963,349.606 219.5,358C 211.209,359.955 207.709,356.788 209,348.5C 210.376,347.295 211.542,345.962 212.5,344.5 Z M 214.5,348.5 C 211.448,351.348 211.948,353.348 216,354.5C 219.382,351.587 218.882,349.587 214.5,348.5 Z"/></g>
<g><path style="opacity:0.111" fill="#f1f1f1" d="M 213.5,346.5 C 219.499,346.002 221.666,348.669 220,354.5C 217,358.5 214,358.5 211,354.5C 210.018,351.225 210.851,348.559 213.5,346.5 Z M 214.5,348.5 C 211.448,351.348 211.948,353.348 216,354.5C 219.382,351.587 218.882,349.587 214.5,348.5 Z"/></g>
<g><path style="opacity:0.911" fill="#191919" d="M 293.5,332.5 C 297.438,335.098 301.105,338.098 304.5,341.5C 303.726,342.711 302.893,342.711 302,341.5C 301.556,346.112 299.056,348.446 294.5,348.5C 294.048,356.694 290.382,358.527 283.5,354C 281.362,352.578 280.195,350.745 280,348.5C 282.46,349.958 284.627,351.791 286.5,354C 291.498,355.33 293.664,353.496 293,348.5C 290.065,346.273 288.065,343.606 287,340.5C 289.46,341.958 291.627,343.791 293.5,346C 298.498,347.33 300.664,345.496 300,340.5C 297.218,338.229 295.051,335.563 293.5,332.5 Z"/></g>
<g><path style="opacity:0.714" fill="#232323" d="M 258.5,356.5 C 261.187,356.336 263.854,356.503 266.5,357C 264.167,357.333 261.833,357.667 259.5,358C 257.606,359.079 257.273,360.413 258.5,362C 261.167,362.333 263.833,362.667 266.5,363C 268.028,365.881 267.362,368.214 264.5,370C 256.5,369.991 256.5,369.324 264.5,368C 265.337,366.989 265.67,365.822 265.5,364.5C 261.993,365.006 258.826,364.34 256,362.5C 255.034,359.66 255.867,357.66 258.5,356.5 Z"/></g>
<g><path style="opacity:0.792" fill="#2c2c2c" d="M 272.5,351.5 C 279.632,351.802 282.465,355.469 281,362.5C 276.526,366.618 272.36,366.285 268.5,361.5C 271.833,359.5 275.167,357.5 278.5,355.5C 274.562,352.492 271.228,353.158 268.5,357.5C 267.479,356.998 267.312,356.332 268,355.5C 269.397,353.93 270.897,352.596 272.5,351.5 Z"/></g>
<g><path style="opacity:0.13" fill="#eeeeee" d="M 278.5,357.5 C 280.811,358.961 280.811,360.794 278.5,363C 275.947,363.851 273.614,363.518 271.5,362C 273.898,360.476 276.231,358.976 278.5,357.5 Z"/></g>
<g><path style="opacity:0.835" fill="#1a1a1a" d="M 226.5,352.5 C 227.097,352.735 227.43,353.235 227.5,354C 225.889,358.149 224.723,362.316 224,366.5C 227.058,362.938 230.558,359.938 234.5,357.5C 235.971,361.747 237.138,366.08 238,370.5C 239.549,366.01 241.383,361.677 243.5,357.5C 243.833,358 244.167,358.5 244.5,359C 242.52,364.613 240.353,370.113 238,375.5C 236.499,370.477 234.999,365.477 233.5,360.5C 229.726,362.771 226.393,365.604 223.5,369C 222.365,369.749 221.365,369.583 220.5,368.5C 222.312,363.061 224.312,357.727 226.5,352.5 Z M 231.5,365.5 C 231.167,366.5 230.5,367.167 229.5,367.5C 229.5,366.167 230.167,365.5 231.5,365.5 Z"/></g>
</svg>
